<svg xmlns="http://www.w3.org/2000/svg" viewBox="0 0 32 32">
  <defs>
    <linearGradient id="btc-grad" x1="0%" y1="0%" x2="100%" y2="100%">
      <stop offset="0%" stop-color="#F7931A"/>
      <stop offset="100%" stop-color="#E67A00"/>
    </linearGradient>
  </defs>
  <circle cx="16" cy="16" r="16" fill="url(#btc-grad)"/>
  <path fill="#fff" d="M22.5 14.1c.3-2-1.2-3.1-3.3-3.8l.7-2.7-1.6-.4-.7 2.6c-.4-.1-.8-.2-1.3-.3l.7-2.6-1.6-.4-.7 2.7-1-.3-2.2-.5-.4 1.7s1.2.3 1.2.3c.6.2.8.6.7 1l-.7 3c0 .1.1.1.1.2l-.1 0-1 4c-.1.2-.3.5-.8.4 0 0-1.2-.3-1.2-.3l-.8 1.8 2.1.5 1.1.3-.7 2.8 1.6.4.7-2.7c.4.1.9.2 1.3.3l-.7 2.7 1.6.4.7-2.7c2.9.5 5 .3 5.9-2.3.7-2.1 0-3.3-1.6-4.1 1.1-.3 2-1.1 2.2-2.8zm-4 5.5c-.5 2.1-4.1 1-5.3.7l.9-3.8c1.2.3 4.9.9 4.4 3.1zm.5-5.6c-.5 1.9-3.5.9-4.5.7l.8-3.4c1 .3 4.2.7 3.7 2.7z"/>
</svg>