<svg xmlns="http://www.w3.org/2000/svg" viewBox="0 0 32 32">
  <defs>
    <linearGradient id="matic-grad" x1="0%" y1="0%" x2="100%" y2="100%">
      <stop offset="0%" stop-color="#8247E5"/>
      <stop offset="100%" stop-color="#6B3BC7"/>
    </linearGradient>
  </defs>
  <circle cx="16" cy="16" r="16" fill="url(#matic-grad)"/>
  <path fill="#fff" d="M21.5 12.5l-3-1.7c-.8-.5-1.7-.5-2.5 0l-3 1.7c-.8.5-1.3 1.3-1.3 2.2v3.4c0 .9.5 1.7 1.3 2.2l3 1.7c.8.5 1.7.5 2.5 0l3-1.7c.8-.5 1.3-1.3 1.3-2.2v-3.4c0-.9-.5-1.7-1.3-2.2zm-5.5 7.8l-3-1.7v-3.4l3-1.7 3 1.7v3.4l-3 1.7z"/>
</svg>